<?xml version="1.0" encoding="utf-8"?>
<!-- Generator: Adobe Illustrator 15.0.0, SVG Export Plug-In . SVG Version: 6.00 Build 0)  -->
<!DOCTYPE svg PUBLIC "-//W3C//DTD SVG 1.1//EN" "http://www.w3.org/Graphics/SVG/1.1/DTD/svg11.dtd">
<svg version="1.1" xmlns="http://www.w3.org/2000/svg" xmlns:xlink="http://www.w3.org/1999/xlink" x="0px" y="0px" width="400px"
	 height="400px" viewBox="0 0 400 400" enable-background="new 0 0 400 400" xml:space="preserve">
<g id="Layer_1" display="none">
	
		<image display="inline" overflow="visible" width="288" height="399" xlink:href="../../../Pictures/ohBrother.png"  transform="matrix(0.9999 0 0 0.9999 56.0181 0.5254)">
	</image>
</g>
<g id="Layer_2">
	<path fill="none" stroke="#E86B6B" stroke-miterlimit="10" d="M114,231.889l4.444-28.333c0,0,43.334-50.556,66.667-53.333
		s23.334,1.667,25.556,2.778s10.555,1.667,16.666,0s7.777-7.909,19.444-3.677s12.222-10.767,20.556,9.788s2.778,7.222,17.778,25.555
		s10,31.667,10,31.667l0.8,11.111l5.312,10c0,0,1.667,17.777,0,19.444s-2.778,24.444-2.778,26.111s-8.333,25.555-8.889,28.333
		s-28.89,43.334-31.667,47.778s-25.555,22.777-32.777,24.444s-23.334,4.444-35.556,0c-12.222-4.444-22.778-11.111-31.667-21.667
		s-24.444-30-29.444-38.333S116.778,295.777,114,288s0-6.055,0-21.083"/>
	<path fill="none" stroke="#E86B6B" stroke-miterlimit="10" d="M138.444,220.777l13.889-6.11h12.778l11.667,3.056
		c0,0,15.555,11.39,19.444,12.5S190.667,233,190.667,233s-5.555-3.333-8.889-5s-8.889-2.776-16.111-4.166s-16.111-2.499-19.444,0"/>
	<path fill="none" stroke="#E86B6B" stroke-miterlimit="10" d="M228.444,228c0,0,11.11-8.332,18.333-7.777
		s21.111,1.614,30.556-0.026"/>
	<path fill="none" stroke="#E86B6B" stroke-miterlimit="10" d="M228.444,233l3.333,2.223c0,0-1.666-1.666,7.778-5
		s10-0.556,20.556-2.223s21.111-4.166,21.111-4.166"/>
	<path fill="none" stroke="#E86B6B" stroke-miterlimit="10" d="M80.667,195.778c0,0-2.222,17.778,0,22.222s11.112,30.556,11.667,35
		s3.333,13.945,10,13.917s10.432-10.584,10.432-10.584s2.654-13.332,0-16.11S97.401,234.667,96.812,228s2.744-16.667-3.367-21.111
		S84,200,84,200"/>
	<path fill="none" stroke="#E86B6B" stroke-miterlimit="10" d="M301.964,261.889c0,0,10.369-14.444,10.925-19.444
		s6.111-23.89,11.111-35c5-11.111,8.889-31.111,8.889-31.111s-1.111-25,0-37.778s-1.11-32.222-2.777-35.556s-7.292-25-12.535-28.333
		S291.777,38,287.333,37.444s-45-22.778-49.444-22.778s-26.111-2.778-26.111-2.778l-11.777,10l-2.838-10l-26.495,3.889
		c0,0-36.111,12.222-41.667,17.222s-13.443,12.778-15.055,17.222S95.667,78,90.667,99.111s-5.555,35-7.222,44.444
		s-4.753,38.333-3.766,42.778s12.032,9.56,10.988,13.667s10.556,13.001,10.556,14.667s1.111,4.973,0,9.431
		s11.543,11.125,11.543,11.125"/>
	<path fill="none" stroke="#E86B6B" stroke-miterlimit="10" d="M216.777,125.778c-5.556-71.111,13.333-75,15-78.333"/>
	<path fill="none" stroke="#E86B6B" stroke-miterlimit="10" d="M197.162,125.778c-4.829-17.222-15.939-38.889-15.939-58.889"/>
	<path fill="none" stroke="#E86B6B" stroke-miterlimit="10" d="M171.777,136.889c0,0-24.444-47.777-24.444-60.555"/>
	<path fill="none" stroke="#E86B6B" stroke-miterlimit="10" d="M237.889,136.889c0,0,4.444-46.111,15-65"/>
	<path fill="none" stroke="#E86B6B" stroke-miterlimit="10" d="M272.889,136.889c0,0,15-52.777,23.889-60.555"/>
	<path fill="none" stroke="#E86B6B" stroke-miterlimit="10" d="M144.555,157.444c-22.222-56.111-26.111-66.667-22.222-76.667"/>
	<path fill="none" stroke="#E86B6B" stroke-miterlimit="10" d="M237.889,238h35c0,0,8.333-1.666,11.944-2.777"/>
	<path fill="none" stroke="#E86B6B" stroke-miterlimit="10" d="M203.444,238l-22.222-2.777c0,0-27.778,2.777-30,2.777
		s-9.445-2.777-9.445-2.777"/>
	<path fill="none" stroke="#E86B6B" stroke-miterlimit="10" d="M152.333,300.777c0,0,27.778-38.889,35-38.889"/>
	<path fill="none" stroke="#E86B6B" stroke-miterlimit="10" d="M234,264.111c0,0,27.223,20.555,31.111,31.666"/>
	<path fill="none" stroke="#E86B6B" stroke-miterlimit="10" d="M189.192,269.111l5.363,16.666c0,0,8.396,2.777,12.809,5.556
		s6.081,9.444,12.747,4.444s6.666-12.082,11.666-12.43s10-2.57,6.111-10.903"/>
	<path fill="none" stroke="#E86B6B" stroke-miterlimit="10" d="M200,261.889c0,0,2.333,9.999,3.444,13.889s1.11,6.807,7.222,7.57
		s8.425,0.207,13.102-2.015s9.676-8.832,8.01-14.416"/>
	<line fill="none" stroke="#E86B6B" stroke-miterlimit="10" x1="194" y1="244.111" x2="203.444" y2="251.889"/>
	<path fill="none" stroke="#E86B6B" stroke-miterlimit="10" d="M225.666,251.889c0,0,4.444-10,6.111-10"/>
	<path fill="none" stroke="#E86B6B" stroke-miterlimit="10" d="M239.277,246.889c0,0,10.001,8.889,22.084,5"/>
	<path fill="none" stroke="#E86B6B" stroke-miterlimit="10" d="M183.444,246.889c0,0-30-0.555-33.333-2.777"/>
	<path fill="none" stroke="#E86B6B" stroke-miterlimit="10" d="M162.333,304.667c0,0,37.84-0.557,45.031,2.222
		s32.191-7.778,42.191-6.111s7.777,6.58,7.777,6.58s-18.419,37.309-43.099,35.087c-24.679-2.222-24.679-2.222-38.568-18.333"/>
	<path fill="none" stroke="#E86B6B" stroke-miterlimit="10" d="M169.833,308c0,0,13.056,6.666,11.389,4.444s5.555-2.427,6.111,0.453
		s11.111,1.213,11.389,3.991s9.933-1.196,11.216,4.68s11.375-14.68,13.829-3.568S229,307.648,234,315.324s9.689-10.194,15.556-7.324
		"/>
	<path fill="none" stroke="#E86B6B" stroke-miterlimit="10" d="M169.833,311.889c0,0,4.722,4.445,7.5,7.223s1.667,3.334,10,6.111
		s16.39,3.889,22.361,3.889s9.305,2.778,15.972,0s19.723-13.945,19.723-13.945"/>
	<line fill="none" stroke="#E86B6B" stroke-miterlimit="10" x1="223.768" y1="322.647" x2="223.768" y2="325.777"/>
	<line fill="none" stroke="#E86B6B" stroke-miterlimit="10" x1="209.938" y1="325.777" x2="209.694" y2="329.111"/>
	<line fill="none" stroke="#E86B6B" stroke-miterlimit="10" x1="197.162" y1="322.647" x2="197.162" y2="327.444"/>
	<path fill="none" stroke="#E86B6B" stroke-miterlimit="10" d="M152.333,321.117c7.222,12.438,12.778,20.771,17.5,25.216"/>
	<path fill="none" stroke="#E86B6B" stroke-miterlimit="10" d="M265.111,307.685c0,0-2.221,27.729-10.277,34.855"/>
	<path fill="none" stroke="#E86B6B" stroke-miterlimit="10" d="M161.083,349.667c0,0,19.794,34.444,48.855,27.777
		s35.728-16.11,42.95-22.777"/>
	<path fill="none" stroke="#E86B6B" stroke-miterlimit="10" d="M194,359.667c6.111,3.889,5.833,4.19,15.694,4.317"/>
	<path fill="none" stroke="#E86B6B" stroke-miterlimit="10" d="M121.008,264.111c0,0,3.548,16.666,17.437,26.666"/>
	<path fill="none" stroke="#E86B6B" stroke-miterlimit="10" d="M200,208c0,0,6.223,11.084,7.611,16.098"/>
	<path fill="none" stroke="#E86B6B" stroke-miterlimit="10" d="M293.444,311.889c0,0,28.889,45.557,33.889,47.778
		s16.649,4.317,16.649,4.317"/>
	<path fill="none" stroke="#E86B6B" stroke-miterlimit="10" d="M284.833,327.444l3.611,26.667c0,0,30.555,34.444,33.333,38.333"/>
	<path fill="none" stroke="#E86B6B" stroke-miterlimit="10" d="M293.444,337.937c8.333,13.396,12.222,24.81,22.222,26.048
		s6.112-1.541,8.89,6.793"/>
	<path fill="none" stroke="#E86B6B" stroke-miterlimit="10" d="M121.008,317.444c0,0,37.992,76.857,41.325,79.444"/>
	<line fill="none" stroke="#E86B6B" stroke-miterlimit="10" x1="198.722" y1="385.956" x2="189.192" y2="396.889"/>
	<line fill="none" stroke="#E86B6B" stroke-miterlimit="10" x1="221.777" y1="385.956" x2="234" y2="399.476"/>
	<path fill="none" stroke="#E86B6B" stroke-miterlimit="10" d="M287.889,363.984c0,0,0.556,6.236-3.056,19.57"/>
	<path fill="none" stroke="#E86B6B" stroke-miterlimit="10" d="M109.555,290.777c0,0-43.889,39.783-45,42.947"/>
	<path fill="none" stroke="#E86B6B" stroke-miterlimit="10" d="M124.555,346.333c0,0,0.556,25.047-6.667,31.968"/>
	<path fill="none" stroke="#E86B6B" stroke-miterlimit="10" d="M62.333,333.725c0,0-6.11,43.521-3.333,52.231"/>
</g>
</svg>
